# xmcd CD database file
#
# Track frame offsets:
#	150
#	12735
#	22805
#	34117
#	45777
#	59765
#	70530
#	81497
#	92685
#	104847
#	118232
#	131867
#	150267
#	165567
#	181305
#	194620
#	211180
#	222442
#	235282
#	251885
#
# Disc length: 3594 seconds
#
# Revision: 5
# Processed by: cddbd v1.5.2PL0 Copyright (c) Steve Scherf et al.
# Submitted via: CDex 1.70beta2
#
DISCID=200e0814
DTITLE=Charlie McCoy - La Légende Country Charlie McCoy
DYEAR=1998
DGENRE=Country
TTITLE0=Orange Blossom Special (new version)
TTITLE1=Wabash Cannonball
TTITLE2=Today I Started Loving You Again
TTITLE3=Release Me
TTITLE4=I Really Don't Want To Know
TTITLE5=Silver Threads And Golden Needles
TTITLE6=I'm So Lonesome I Could Cry
TTITLE7=Boodie Woogie
TTITLE8=I Can't Help It
TTITLE9=Shenandoah
TTITLE10=Kro Hoppin'
TTITLE11=Let's Get Started
TTITLE12=Send In The Crowns
TTITLE13=Mess In The Mountain
TTITLE14=Melody Ranch
TTITLE15=Take A Train
TTITLE16=Karins Dream
TTITLE17=Bayou Lafayette
TTITLE18=Loose Shoes
TTITLE19=The Funky Duck
EXTD=(c)1998 Sony Music SA\nupc 5099749130524 YEAR: 1998
EXTT0=
EXTT1=
EXTT2=
EXTT3=
EXTT4=
EXTT5=
EXTT6=
EXTT7=
EXTT8=
EXTT9=
EXTT10=
EXTT11=
EXTT12=
EXTT13=
EXTT14=
EXTT15=
EXTT16=
EXTT17=
EXTT18=
EXTT19=
PLAYORDER=
